<svg width="16" height="15" viewBox="0 0 16 15" fill="none" xmlns="http://www.w3.org/2000/svg">
<path d="M11.6768 0H4.32316C1.93938 0 0 1.81816 0 4.05296V10.947C0 13.1818 1.93938 15 4.32316 15H11.6768C14.0606 15 16 13.1818 16 10.947V4.05296C16 1.81816 14.0606 0 11.6768 0ZM14.7074 10.947C14.7074 12.5136 13.3479 13.7882 11.6768 13.7882H4.32316C2.65213 13.7882 1.29262 12.5137 1.29262 10.947V4.05296C1.29262 2.48637 2.65209 1.21184 4.32316 1.21184H11.6768C13.3479 1.21184 14.7074 2.48634 14.7074 4.05296V10.947Z" fill="white"/>
<path d="M11.5808 6.97677C11.4671 6.25762 11.1171 5.60583 10.5688 5.09175C10.0204 4.57771 9.32516 4.24959 8.5581 4.14298C8.20885 4.09443 7.85475 4.09443 7.50553 4.14298C6.55753 4.27478 5.72106 4.74476 5.15016 5.46637C4.57925 6.18798 4.34222 7.07486 4.48281 7.96355C4.62341 8.85227 5.12472 9.63645 5.89444 10.1717C6.51931 10.6062 7.26025 10.8344 8.02422 10.8344C8.20131 10.8344 8.37969 10.8221 8.55806 10.7973C9.50606 10.6655 10.3425 10.1955 10.9134 9.47392C11.4844 8.75233 11.7214 7.86549 11.5808 6.97677ZM8.36847 9.59857C7.76206 9.68301 7.15691 9.54077 6.6645 9.19838C6.17209 8.85599 5.85141 8.35431 5.7615 7.7858C5.67156 7.2173 5.82316 6.64996 6.18838 6.18833C6.55363 5.7267 7.08872 5.42606 7.69516 5.34174C7.80684 5.32622 7.91931 5.31845 8.03178 5.31845C8.14425 5.31845 8.25675 5.32622 8.36844 5.34177C9.37566 5.48178 10.1528 6.21028 10.3021 7.15457C10.4878 8.32815 9.62034 9.42455 8.36847 9.59857Z" fill="white"/>
<path d="M12.5016 3.27985C12.3812 3.16703 12.2146 3.10237 12.0445 3.10237C11.8745 3.10237 11.7079 3.167 11.5875 3.27985C11.4671 3.3927 11.3982 3.54862 11.3982 3.70832C11.3982 3.86802 11.4671 4.02393 11.5875 4.13679C11.7079 4.24961 11.8745 4.31427 12.0445 4.31427C12.2146 4.31427 12.3812 4.24964 12.5016 4.13679C12.6219 4.02393 12.6909 3.86775 12.6909 3.70832C12.6909 3.54885 12.6219 3.39267 12.5016 3.27985Z" fill="white"/>
</svg>
