<svg width="15" height="15" viewBox="0 0 15 15" fill="none" xmlns="http://www.w3.org/2000/svg">
<g clip-path="url(#clip0)">
<path d="M3.49161 4.82565H0.480339C0.346694 4.82565 0.238403 4.93399 0.238403 5.06758V14.7415C0.238403 14.8752 0.346694 14.9835 0.480339 14.9835H3.49161C3.62525 14.9835 3.73354 14.8752 3.73354 14.7415V5.06758C3.73354 4.93399 3.62525 4.82565 3.49161 4.82565Z" fill="white"/>
<path d="M1.98707 0.0164986C0.891388 0.0164986 0 0.906919 0 2.00139C0 3.09634 0.891388 3.9871 1.98707 3.9871C3.08187 3.9871 3.97254 3.09629 3.97254 2.00139C3.97258 0.906919 3.08187 0.0164986 1.98707 0.0164986Z" fill="white"/>
<path d="M11.151 4.58521C9.94158 4.58521 9.04753 5.10513 8.50526 5.69589V5.06758C8.50526 4.93399 8.39697 4.82565 8.26332 4.82565H5.37949C5.24584 4.82565 5.13755 4.93399 5.13755 5.06758V14.7415C5.13755 14.8752 5.24584 14.9835 5.37949 14.9835H8.38419C8.51784 14.9835 8.62613 14.8752 8.62613 14.7415V9.95517C8.62613 8.34228 9.06423 7.71393 10.1886 7.71393C11.413 7.71393 11.5103 8.72125 11.5103 10.0382V14.7416C11.5103 14.8752 11.6186 14.9835 11.7523 14.9835H14.7581C14.8917 14.9835 15 14.8752 15 14.7416V9.43525C15 7.03694 14.5427 4.58521 11.151 4.58521Z" fill="white"/>
</g>
<defs>
<clipPath id="clip0">
<rect width="15" height="15" fill="white"/>
</clipPath>
</defs>
</svg>
