<svg width="15" height="15" viewBox="0 0 15 15" fill="none" xmlns="http://www.w3.org/2000/svg">
<g clip-path="url(#clip0)">
<path d="M15 2.84794C14.4481 3.09269 13.855 3.25813 13.2325 3.33251C13.8679 2.95165 14.3558 2.34858 14.5856 1.62993C13.9909 1.98263 13.3324 2.23872 12.6314 2.3767C12.0701 1.77861 11.2702 1.40493 10.3851 1.40493C8.68556 1.40493 7.3077 2.78273 7.3077 4.48223C7.3077 4.72343 7.33492 4.9583 7.38739 5.18357C4.82978 5.05519 2.56218 3.83006 1.04437 1.96816C0.779471 2.42267 0.627685 2.9513 0.627685 3.51529C0.627685 4.58298 1.17096 5.52493 1.99672 6.0768C1.49226 6.0608 1.01774 5.92237 0.60287 5.69187C0.602578 5.7047 0.602578 5.71759 0.602578 5.73057C0.602578 7.2216 1.66338 8.46536 3.07115 8.74813C2.81296 8.81842 2.54106 8.85615 2.26039 8.85615C2.06208 8.85615 1.86931 8.83681 1.68137 8.80084C2.07301 10.0234 3.20949 10.9132 4.55615 10.938C3.50293 11.7635 2.17599 12.2554 0.734149 12.2554C0.485742 12.2554 0.240792 12.2409 3.05176e-05 12.2123C1.36192 13.0855 2.97954 13.595 4.71743 13.595C10.3779 13.595 13.4733 8.90572 13.4733 4.83904C13.4733 4.70562 13.4703 4.57291 13.4644 4.44089C14.0657 4.00704 14.5875 3.46505 15 2.84794Z" fill="white"/>
</g>
<defs>
<clipPath id="clip0">
<rect width="15" height="15" fill="white"/>
</clipPath>
</defs>
</svg>
